<svg xmlns="http://www.w3.org/2000/svg" width="128pt" height="128pt" viewBox="0 0 128 128"><path d="M4.469 69.113h71.176v51.219H4.469zm0 0" fill="#caa977"/><path d="M0 56.707h75.645v12.406H0zm0 0" fill="#dfcaa3"/><path d="M75.645 69.113h47.886v51.219H75.645zm0 0" fill="#a88d63"/><path d="M75.645 56.707H128v12.406H75.645zm0 0" fill="#caa977"/><path d="M110.441 76.813a3.66 3.66 0 110 7.316H95.055a3.658 3.658 0 110-7.317zm0 0" fill="#333e48"/><path d="M4.469 94.723h31.914v13.601H4.469zm0 0" fill="#d16a70"/><path d="M31.75 17.23h54.855v39.477H31.75zm0 0" fill="#caa977"/><path d="M28.309 7.668h58.296v9.562H28.31zm0 0" fill="#dfcaa3"/><path d="M86.605 17.23h36.91v39.477h-36.91zm0 0" fill="#a88d63"/><path d="M86.605 7.668h40.352v9.562H86.605zm0 0" fill="#caa977"/><path d="M113.426 23.164a2.822 2.822 0 010 5.64h-11.86a2.82 2.82 0 01-2.82-2.82 2.82 2.82 0 012.82-2.82h11.86zm0 0" fill="#333e48"/><path d="M31.75 36.969h24.598v10.484H31.75zm0 0" fill="#d16a70"/></svg>