<svg xmlns="http://www.w3.org/2000/svg" width="128pt" height="128pt" viewBox="0 0 128 128"><defs><linearGradient id="a" gradientUnits="userSpaceOnUse" x1="-40.453" y1="634.734" x2="-28.246" y2="622.528" gradientTransform="matrix(5.33333 0 0 -5.33333 249.083 3447.917)"><stop offset="0" stop-opacity=".102"/><stop offset="1" stop-opacity="0"/></linearGradient><linearGradient id="b" gradientUnits="userSpaceOnUse" x1="-47.411" y1="640.41" x2="-21.996" y2="628.559" gradientTransform="matrix(5.33333 0 0 -5.33333 249.083 3447.917)"><stop offset="0" stop-color="#fff" stop-opacity=".2"/><stop offset="1" stop-color="#fff" stop-opacity="0"/></linearGradient></defs><path d="M117.332 16H10.668C4.785 16 0 20.785 0 26.668v74.664C0 107.215 4.785 112 10.668 112h106.664c5.883 0 10.668-4.785 10.668-10.668V26.668C128 20.785 123.215 16 117.332 16zm0 0" fill="#303c42"/><path d="M10.668 21.332h106.664a5.34 5.34 0 015.336 5.336v48H5.332v-48a5.34 5.34 0 015.336-5.336zm0 0M117.332 106.668H10.668a5.34 5.34 0 01-5.336-5.336V90.668h117.336v10.664a5.34 5.34 0 01-5.336 5.336zm0 0" fill="#0288d1"/><path d="M24 58.668c4.41 0 8-3.59 8-8V48a2.667 2.667 0 00-2.668-2.668h-2.664A2.667 2.667 0 0024 48a2.667 2.667 0 002.668 2.668A2.67 2.67 0 0124 53.332a2.67 2.67 0 01-2.668-2.664V40c0-1.473 1.2-2.668 2.668-2.668A2.672 2.672 0 0126.668 40 2.666 2.666 0 1032 40c0-4.41-3.59-8-8-8s-8 3.59-8 8v10.668c0 4.41 3.59 8 8 8zm0 0M50.668 58.668A2.666 2.666 0 0053.332 56v-8h5.336a2.663 2.663 0 002.664-2.668 2.662 2.662 0 00-2.664-2.664h-5.336v-5.336H64V56a2.667 2.667 0 105.332 0V37.332h5.336a2.662 2.662 0 002.664-2.664A2.663 2.663 0 0074.668 32h-24A2.664 2.664 0 0048 34.668V56a2.667 2.667 0 002.668 2.668zm0 0M40 58.668A2.669 2.669 0 0042.668 56V34.668A2.667 2.667 0 0040 32a2.667 2.667 0 00-2.668 2.668V56A2.669 2.669 0 0040 58.668zm0 0" fill="#303c42"/><path d="M117.332 106.668a5.34 5.34 0 005.336-5.336V90.668H5.332l10.668 16zm0 0" fill="url(#a)"/><path d="M117.332 16H10.668C4.785 16 0 20.785 0 26.668v74.664C0 107.215 4.785 112 10.668 112h106.664c5.883 0 10.668-4.785 10.668-10.668V26.668C128 20.785 123.215 16 117.332 16zm0 0" fill="url(#b)"/></svg>