<svg xmlns="http://www.w3.org/2000/svg" width="128pt" height="128pt" viewBox="0 0 128 128"><path d="M108.578 73.016c-.55 6.55-7.379 7.582-7.379 7.582 5.864.277 7.32 7.965 7.32 7.965.13-5.481 7.547-8.043 7.547-8.043-5.558-.332-7.488-7.504-7.488-7.504zm0 0" fill="#d7e057"/><path d="M116.117 79.672c-4.875-.293-6.703-6.813-6.719-6.879a.857.857 0 00-.898-.625.851.851 0 00-.77.777c-.488 5.785-6.406 6.774-6.656 6.813a.851.851 0 00.086 1.691c5.113.239 6.516 7.203 6.528 7.274.078.402.43.687.832.687h.074a.856.856 0 00.777-.828c.11-4.82 6.906-7.234 6.973-7.262a.844.844 0 00.562-.918.846.846 0 00-.789-.73zm-7.683 5.86c-.77-1.774-2.102-3.915-4.297-5.028 1.66-.797 3.629-2.219 4.644-4.688.88 1.743 2.38 3.899 4.719 4.942-1.703.93-3.918 2.496-5.066 4.773zm0 0" fill="#3a312a"/><path d="M96.29 82.633C95.897 87.266 91.07 88 91.07 88c4.145.195 5.176 5.633 5.176 5.633.09-3.88 5.34-5.692 5.34-5.692-3.934-.234-5.297-5.308-5.297-5.308zm0 0" fill="#d7e057"/><path d="M101.637 87.094c-3.27-.196-4.52-4.637-4.528-4.684a.855.855 0 00-.898-.62.848.848 0 00-.77.772c-.328 3.891-4.332 4.57-4.5 4.594a.851.851 0 00.09 1.692c3.418.16 4.375 4.894 4.383 4.941.078.402.43.691.832.691.024 0 .047 0 .07-.003a.847.847 0 00.782-.829c.074-3.23 4.718-4.886 4.765-4.906a.846.846 0 00.563-.918.846.846 0 00-.79-.73zm-5.43 3.847c-.523-1.066-1.328-2.234-2.52-2.988 1.051-.59 2.094-1.492 2.758-2.789.602 1.063 1.504 2.242 2.801 2.961-1.047.625-2.262 1.55-3.039 2.816zm0 0" fill="#3a312a"/><path d="M96.29 67.535c-.392 4.633-5.22 5.363-5.22 5.363 4.145.196 5.176 5.633 5.176 5.633.09-3.879 5.34-5.687 5.34-5.687-3.934-.239-5.297-5.309-5.297-5.309zm0 0" fill="#d7e057"/><path d="M101.637 71.992c-3.27-.195-4.52-4.637-4.528-4.68a.858.858 0 00-.898-.624.851.851 0 00-.77.777c-.328 3.89-4.332 4.566-4.5 4.594a.851.851 0 00-.718.886c.02.434.37.782.808.801 3.418.164 4.375 4.899 4.383 4.945.078.403.43.692.832.692.024 0 .047 0 .07-.004a.85.85 0 00.782-.828c.074-3.235 4.718-4.89 4.765-4.906a.848.848 0 00.563-.918.853.853 0 00-.79-.735zm-5.43 3.852c-.523-1.07-1.328-2.239-2.52-2.992 1.051-.59 2.094-1.489 2.758-2.786.602 1.063 1.504 2.239 2.801 2.961-1.05.621-2.262 1.551-3.039 2.817zm0 0" fill="#3a312a"/><path d="M72.555 95.176H61.496v-7.192c-3.062 2.121-6.226 3.375-9.3 3.375-2.946 0-6.055-1.265-9.102-3.41h-.188v7.227h-11.07c-9.246 0-16.742 7.496-16.742 16.742v15.172H89.3v-15.172c0-9.246-7.496-16.742-16.746-16.742zm0 0" fill="#fce8cb"/><path d="M72.555 94.324H62.344v-6.34a.852.852 0 00-.457-.754.842.842 0 00-.875.06c-3.086 2.136-6.051 3.218-8.817 3.218-2.648 0-5.547-1.094-8.613-3.254a.847.847 0 00-.492-.156h-.184a.851.851 0 00-.851.851v6.375h-10.22c-9.698 0-17.593 7.895-17.593 17.594v15.172c0 .472.383.851.852.851H40.52a.85.85 0 100-1.7l-24.579.001v-14.324c0-8.762 7.133-15.895 15.895-15.895h11.07a.847.847 0 00.848-.847V89.41c2.945 1.86 5.781 2.797 8.441 2.797 2.707 0 5.543-.89 8.45-2.656v5.625a.85.85 0 00.851.847h11.059c8.765 0 15.894 7.133 15.894 15.895v14.324H48.883a.847.847 0 00-.848.848c0 .472.38.851.848.851H89.3a.848.848 0 00.847-.851v-15.172c0-9.7-7.89-17.594-17.593-17.594zm0 0" fill="#3a312a"/><path d="M72.559 95.172H69.91l.07.05-11.507 15.258-5.938-4.472-5.937 4.472L35.09 95.223l.07-.051h-3.324c-9.246 0-16.742 7.492-16.742 16.742v15.18H89.3v-15.18c0-9.25-7.496-16.742-16.742-16.742zm0 0" fill="#8ac6dd"/><path d="M72.555 94.32H69.91a.853.853 0 00-.836.688l-10.77 14.285-5.261-3.965a.85.85 0 00-1.02 0l-5.261 3.965-10.77-14.285a.713.713 0 00-.027-.098.846.846 0 00-.805-.59h-3.324c-9.703 0-17.594 7.895-17.594 17.594v15.18c0 .469.38.851.852.851H40.52a.85.85 0 00.847-.851.85.85 0 00-.847-.852H15.94v-14.328c0-8.762 7.13-15.894 15.895-15.894h2.793l11.289 14.972a.852.852 0 001.191.168l5.426-4.09 5.426 4.09a.852.852 0 001.191-.168l11.29-14.972h2.113c8.765 0 15.894 7.132 15.894 15.894v14.328H48.883a.85.85 0 00-.848.852.85.85 0 00.848.851H89.3a.85.85 0 00.847-.851v-15.18c0-9.703-7.89-17.594-17.593-17.594zm0 0" fill="#3a312a"/><path d="M23.445 47.082a6.587 6.587 0 00-6.586 6.586 6.588 6.588 0 106.586-6.586zm0 0" fill-rule="evenodd" fill="#fce8cb"/><path d="M23.445 46.23c-4.101 0-7.437 3.336-7.437 7.438s3.336 7.437 7.437 7.437c4.102 0 7.438-3.335 7.438-7.437s-3.336-7.438-7.438-7.438zm0 13.176a5.745 5.745 0 01-5.738-5.738 5.745 5.745 0 015.738-5.738 5.745 5.745 0 015.739 5.738 5.745 5.745 0 01-5.739 5.738zm0 0" fill="#3a312a"/><path d="M80.95 47.082a6.59 6.59 0 00-6.59 6.586 6.59 6.59 0 0013.18 0 6.59 6.59 0 00-6.59-6.586zm0 0" fill-rule="evenodd" fill="#fce8cb"/><path d="M80.95 46.23c-4.102 0-7.438 3.336-7.438 7.438s3.336 7.437 7.437 7.437c4.102 0 7.438-3.335 7.438-7.437s-3.336-7.438-7.438-7.438zm0 13.176a5.745 5.745 0 01-5.74-5.738 5.745 5.745 0 015.74-5.738 5.745 5.745 0 015.737 5.738 5.745 5.745 0 01-5.738 5.738zm0 0" fill="#3a312a"/><path d="M52.2 21.266c-16.134 0-29.208 13.074-29.208 29.203 0 16.133 16.156 40.89 29.207 40.89 13.668 0 29.203-24.757 29.203-40.89 0-16.13-13.074-29.203-29.203-29.203zm0 0" fill="#fce8cb"/><path d="M52.2 20.414c-16.575 0-30.06 13.484-30.06 30.055 0 7.84 3.782 18.176 9.86 26.98 6.39 9.242 13.938 14.762 20.2 14.762 6.585 0 14.034-5.383 20.429-14.77 5.937-8.71 9.625-19.043 9.625-26.972 0-16.57-13.484-30.055-30.055-30.055zm0 70.098c-5.704 0-12.731-5.246-18.802-14.032-5.894-8.53-9.558-18.5-9.558-26.011 0-15.633 12.723-28.356 28.36-28.356 15.632 0 28.355 12.723 28.355 28.356 0 15.812-15.211 40.043-28.356 40.043zm0 0" fill="#3a312a"/><path d="M44.738 50.14a2.852 2.852 0 11-5.705-.001 2.852 2.852 0 015.705.002zm0 0M62.508 47.29a2.85 2.85 0 00-2.848 2.85 2.85 2.85 0 105.7 0 2.852 2.852 0 00-2.852-2.85zm0 0" fill="#3a312a"/><path d="M41.098 58.617c0-2.027-2.196-3.672-4.91-3.672-2.711 0-4.91 1.645-4.91 3.672 0 2.028 2.199 3.668 4.91 3.668 2.714 0 4.91-1.64 4.91-3.668zm0 0M68.207 54.945c-2.715 0-4.91 1.645-4.91 3.672 0 2.028 2.195 3.668 4.91 3.668 2.711 0 4.91-1.64 4.91-3.668 0-2.027-2.199-3.672-4.91-3.672zm0 0" fill="#f5978a"/><path d="M82.766 43.719c0-15.961-13.536-28.899-30.23-28.899-16.696 0-30.231 12.938-30.231 28.903 0 1.687.304 2.945.87 4.52.27.741 4.598-1.626 4.97-1.888 1.843-1.296 3.347-3.054 4.472-5 .469-.808.856-1.632 1.168-2.457.996-2.625 3.703-9.93 6.453-9.355 3.684.77 7.864 1.203 12.297 1.203 4.43 0 8.61-.433 12.297-1.203 2.75-.574 5.457 6.73 6.453 9.355.313.825.7 1.649 1.164 2.457 1.86 3.215 5 6.278 8.824 6.836.008-.183.243-.246.415-.312 1.253-.453 1.078-3.156 1.078-4.16zm0 0" fill="#87796f"/><path d="M83.617 44.047l-.004-.328c0-16.403-13.941-29.75-31.078-29.75S21.457 27.316 21.457 43.723c0 1.875.352 3.23.922 4.808.113.305.36.54.683.64.11.036.235.052.375.052 1.637 0 5.16-2.149 5.196-2.172 1.844-1.297 3.476-3.121 4.722-5.274.48-.832.891-1.699 1.223-2.574l.063-.164c2.992-7.894 4.675-8.816 5.422-8.664 3.886.809 8.082 1.219 12.472 1.219 4.387 0 8.586-.41 12.469-1.219.746-.152 2.43.762 5.422 8.664l.062.164c.336.875.746 1.742 1.227 2.578 2.324 4.016 5.851 6.727 9.433 7.25a.851.851 0 00.817-.347c.008 0 .012-.004.015-.004 1.696-.617 1.657-3.23 1.637-4.633zm-2.262 3.05a1.982 1.982 0 00-.39.176c-2.93-.597-5.809-2.937-7.778-6.343a16.285 16.285 0 01-1.109-2.332l-.058-.164c-1.957-5.16-4.372-10.348-7.36-9.723-3.773.785-7.851 1.184-12.125 1.184-4.273 0-8.351-.399-12.12-1.184-2.993-.629-5.407 4.566-7.36 9.723l-.063.164c-.3.793-.672 1.578-1.105 2.332-1.125 1.933-2.586 3.574-4.227 4.73-.508.344-2.848 1.543-3.848 1.817-.41-1.207-.656-2.313-.656-3.758 0-15.465 13.18-28.051 29.38-28.051 16.202 0 29.378 12.586 29.378 28.05l.004.352c.035 2.442-.309 2.934-.563 3.028zm0 0" fill="#3a312a"/><path d="M35.098 95.215l5.965-4.492 11.5 15.261-5.961 4.496zm0 0" fill="#87796f"/><path d="M53.238 105.477L41.734 90.21a.848.848 0 00-1.187-.164l-5.965 4.492a.853.853 0 00-.168 1.191l11.504 15.262a.849.849 0 001.191.168l5.961-4.492a.856.856 0 00.328-.563.826.826 0 00-.16-.628zm-6.476 3.816L36.285 95.387l4.606-3.473 10.476 13.906zm0 0" fill="#3a312a"/><path d="M52.512 105.992l11.504-15.265 5.964 4.496-11.507 15.261zm0 0" fill="#87796f"/><path d="M70.488 94.54l-5.965-4.493a.848.848 0 00-1.188.164l-11.503 15.266a.845.845 0 00.168 1.187l5.96 4.492a.856.856 0 001.191-.164l11.505-15.265a.848.848 0 00-.168-1.188zm-12.183 14.753l-4.606-3.473 10.48-13.906 4.606 3.473zm0 0M28.992 114.25a.85.85 0 00-.847.852v11.992a.85.85 0 101.699 0v-11.992a.854.854 0 00-.852-.852zm0 0M76.078 114.25a.854.854 0 00-.851.852v11.992a.85.85 0 101.7 0l-.001-11.992a.85.85 0 00-.848-.852zm0 0" fill="#3a312a"/><path d="M51.988 4.328C31.402 16.441 19.45-6.844 19.45 3.778c0 3.355 1.352 6.702 3.13 9.745l4.913 6.965C32.45 26.73 38.38 33.387 45.543 35.426 57.078 38.703 77.5 34.613 77.5 18.008c-.004-10.617-8.902-23.45-25.512-13.68zm0 0" fill="#87796f"/><path d="M69.906 1.793C66.371-.23 60.32-1.559 51.56 3.593c-11.977 7.048-20.895 1.7-26.223-1.495C22.8.578 21.133-.426 19.828.313c-1.086.617-1.226 2.175-1.226 3.464 0 3.102 1.058 6.434 3.242 10.176.011.02.023.043.039.063l4.914 6.964.027.04c5.313 6.687 11.227 13.16 18.485 15.222 2.441.692 5.304 1.074 8.316 1.074 6.129 0 12.855-1.578 17.79-5.304 4.534-3.426 6.933-8.27 6.933-14.004 0-5.668-2.61-12.883-8.442-16.215zm.485 28.863c-6.914 5.223-17.618 5.942-24.618 3.953-6.789-1.933-12.472-8.172-17.601-14.629l-4.879-6.914c-2.016-3.464-2.992-6.504-2.992-9.289 0-1.757.351-1.98.367-1.988.441-.254 2.379.918 3.793 1.766 5.281 3.168 15.113 9.062 27.957 1.507C58.797 1.31 64.551.688 69.063 3.27c5.242 2.996 7.585 9.562 7.585 14.738 0 5.258-2.105 9.512-6.257 12.648zm0 0M60.563 68.344a.84.84 0 00-1.09.496c-.582 1.547-2.848 4.472-7.278 4.472-3.46 0-5.847-1.484-7.3-4.539a.848.848 0 00-1.133-.402.847.847 0 00-.403 1.133c1.739 3.652 4.711 5.508 8.836 5.508 4.657 0 7.86-2.89 8.867-5.575a.849.849 0 00-.5-1.093zm0 0" fill="#3a312a"/><path d="M72.555 96.02h-2.118l-.23.304c7.27 1.457 12.77 7.89 12.77 15.59v14.328h5.472v-14.328c0-8.762-7.133-15.894-15.894-15.894zm0 0" fill="#68a8bc"/><path d="M51.05 89.203c-16.343 0-29.64-13.297-29.64-29.64a.85.85 0 10-1.7 0c0 17.28 14.06 31.34 31.34 31.34a.849.849 0 100-1.7zm0 0" fill="#3a312a"/><path d="M56.125 85.426H49a2.714 2.714 0 00-2.715 2.715v2.597c0 1.5 1.215 2.715 2.715 2.715h7.125c1.5 0 2.715-1.215 2.715-2.715v-2.597c0-1.5-1.215-2.715-2.715-2.715zm0 0" fill="#d7e057"/><path d="M56.125 84.574H49a3.57 3.57 0 00-3.566 3.567v2.597A3.573 3.573 0 0049 94.305h7.125a3.573 3.573 0 003.566-3.567v-2.597a3.57 3.57 0 00-3.566-3.567zm1.867 6.164c0 1.028-.84 1.867-1.867 1.867H49a1.872 1.872 0 01-1.867-1.867v-2.597A1.87 1.87 0 0149 86.273h7.125a1.87 1.87 0 011.867 1.868zm0 0" fill="#3a312a"/><path d="M21.953 42.473h-3.469a6.372 6.372 0 00-6.37 6.37v.2h.007v8.672c-.004 0-.008-.004-.008-.004v.195a6.373 6.373 0 006.371 6.375h3.47a1.77 1.77 0 001.769-1.77V44.243a1.77 1.77 0 00-1.77-1.77zm0 0" fill="#d7e057"/><path d="M21.953 41.625h-3.469c-3.98 0-7.222 3.238-7.222 7.219v.199c0 .484.386.879.906.848a.849.849 0 00.8-.848c0-.043 0-.086-.007-.125v-.074a5.527 5.527 0 015.523-5.52h3.47a.92.92 0 01.921.918v18.27a.92.92 0 01-.922.918h-3.469a5.528 5.528 0 01-5.523-5.524v-.105c.004-.028.004-.059.004-.086a.854.854 0 00-.852-.852.849.849 0 00-.851.852v.195c0 3.98 3.242 7.223 7.222 7.223h3.47a2.624 2.624 0 002.62-2.621v-18.27a2.623 2.623 0 00-2.62-2.617zm0 0" fill="#3a312a"/><path d="M86.027 42.473H82.56c-.98 0-1.774.793-1.774 1.77v18.269c0 .976.793 1.77 1.774 1.77h3.468a6.373 6.373 0 006.371-6.376v-9.062a6.372 6.372 0 00-6.37-6.371zm0 0" fill="#d7e057"/><path d="M86.027 41.625H82.56a2.623 2.623 0 00-2.621 2.617v18.27a2.62 2.62 0 002.62 2.617h3.47c3.98 0 7.222-3.238 7.222-7.223v-9.062c0-3.98-3.242-7.219-7.223-7.219zm5.524 16.281a5.53 5.53 0 01-5.524 5.524H82.56a.92.92 0 01-.922-.918v-18.27a.92.92 0 01.922-.918h3.468a5.53 5.53 0 015.524 5.52zm0 0" fill="#3a312a"/><path d="M86.027 43.324H82.91a5.527 5.527 0 015.524 5.52v9.062a5.526 5.526 0 01-5.524 5.524h3.117a5.526 5.526 0 005.524-5.524v-9.062a5.527 5.527 0 00-5.524-5.52zm0 0" fill="#b9bc39"/></svg>