<svg xmlns="http://www.w3.org/2000/svg" xmlns:xlink="http://www.w3.org/1999/xlink" viewBox="0 0 1200 800"><defs><path id="a" d="M265 208c0 6.63-21.04 12-47 12s-47-5.37-47-12 21.04-12 47-12 47 5.37 47 12z"/><path id="b" d="M459 208c0 6.63-21.04 12-47 12s-47-5.37-47-12 21.04-12 47-12 47 5.37 47 12z"/><path id="c" d="M219 58c-41.42 0-75 33.58-75 75s33.58 75 75 75 75-33.58 75-75-33.58-75-75-75z"/><path id="d" d="M413 58c-41.42 0-75 33.58-75 75s33.58 75 75 75 75-33.58 75-75-33.58-75-75-75z"/><path id="e" d="M210 82c-17.12 0-31 13.88-31 31 0 17.12 13.88 31 31 31 17.12 0 31-13.88 31-31 0-17.12-13.88-31-31-31z"/><path id="f" d="M247 82c-17.12 0-31 13.88-31 31 0 17.12 13.88 31 31 31 17.12 0 31-13.88 31-31 0-17.12-13.88-31-31-31z"/><path id="g" d="M381 82c-17.12 0-31 13.88-31 31 0 17.12 13.88 31 31 31 17.12 0 31-13.88 31-31 0-17.12-13.88-31-31-31z"/><path id="h" d="M425 82c-17.12 0-31 13.88-31 31 0 17.12 13.88 31 31 31 17.12 0 31-13.88 31-31 0-17.12-13.88-31-31-31z"/><path id="i" d="M219 107c-3.31 0-6 2.69-6 6s2.69 6 6 6 6-2.69 6-6-2.69-6-6-6z"/><path id="j" d="M256 107c-3.31 0-6 2.69-6 6s2.69 6 6 6 6-2.69 6-6-2.69-6-6-6z"/><path id="k" d="M377 107c-3.31 0-6 2.69-6 6s2.69 6 6 6 6-2.69 6-6-2.69-6-6-6z"/><path id="l" d="M420 107c-3.31 0-6 2.69-6 6s2.69 6 6 6 6-2.69 6-6-2.69-6-6-6z"/><path id="m" d="M234 135a9 9 0 1 0 .001 18.001A9 9 0 0 0 234 135z"/><path id="n" d="M411 169c0 7.18-2.69 13-6 13s-6-5.82-6-13 2.69-13 6-13 6 5.82 6 13z"/><path id="o" d="M236 169c0 3.31-5.82 6-13 6s-13-2.69-13-6 5.82-6 13-6 13 2.69 13 6z"/><path id="p" d="M162.59 154.34c-2.71 10.14-26.54 12.56-53.21 5.41-26.67-7.14-46.09-21.15-43.38-31.29 2.72-10.14 26.54-12.56 53.22-5.41 26.67 7.14 46.09 21.16 43.37 31.29z"/><path id="q" d="M165 60l26 4-28 21 2-25z"/><path id="r" d="M169 64l18 3-19 14 1-17z"/><path id="s" d="M256 48l7 24-30-10 23-14z"/><path id="t" d="M254 53l6 17-20-9 14-8z"/><path id="u" d="M69 128l23-6-9 24-14-18z"/></defs><use fill="#d3d3d3" xlink:href="#a"/><use fill-opacity="0" stroke="#000" stroke-opacity="0" xlink:href="#a"/><use fill="#d3d3d3" xlink:href="#b"/><use fill-opacity="0" stroke="#000" stroke-opacity="0" xlink:href="#b"/><use fill="orange" xlink:href="#c"/><use fill-opacity="0" stroke="#000" stroke-opacity="0" xlink:href="#c"/><use fill="gold" xlink:href="#d"/><use fill-opacity="0" stroke="#000" stroke-opacity="0" xlink:href="#d"/><use fill="#fff" xlink:href="#e"/><use fill-opacity="0" stroke="#000" stroke-opacity="0" xlink:href="#e"/><use fill="#fff" xlink:href="#f"/><use fill-opacity="0" stroke="#000" stroke-opacity="0" xlink:href="#f"/><use fill="#fff" xlink:href="#g"/><use fill-opacity="0" stroke="#000" stroke-opacity="0" xlink:href="#g"/><use fill="#fff" xlink:href="#h"/><use fill-opacity="0" stroke="#000" stroke-opacity="0" xlink:href="#h"/><use xlink:href="#i"/><use fill-opacity="0" stroke="#000" stroke-opacity="0" xlink:href="#i"/><use xlink:href="#j"/><use fill-opacity="0" stroke="#000" stroke-opacity="0" xlink:href="#j"/><use xlink:href="#k"/><use fill-opacity="0" stroke="#000" stroke-opacity="0" xlink:href="#k"/><g><use xlink:href="#l"/><use fill-opacity="0" stroke="#000" stroke-opacity="0" xlink:href="#l"/></g><g><use xlink:href="#m"/><use fill-opacity="0" stroke="#000" stroke-opacity="0" xlink:href="#m"/></g><g><use fill="#dc143c" xlink:href="#n"/><use fill-opacity="0" stroke="#000" stroke-opacity="0" xlink:href="#n"/></g><g><use fill="#dc143c" xlink:href="#o"/><use fill-opacity="0" stroke="#000" stroke-opacity="0" xlink:href="#o"/></g><g><use fill="orange" xlink:href="#p"/><use fill-opacity="0" stroke="#000" stroke-opacity="0" xlink:href="#p"/></g><g><use fill="orange" xlink:href="#q"/><use fill-opacity="0" stroke="#000" stroke-opacity="0" xlink:href="#q"/></g><g><use xlink:href="#r"/><use fill-opacity="0" stroke="#000" stroke-opacity="0" xlink:href="#r"/></g><g><use fill="orange" xlink:href="#s"/><use fill-opacity="0" stroke="#000" stroke-opacity="0" xlink:href="#s"/></g><g><use xlink:href="#t"/><use fill-opacity="0" stroke="#000" stroke-opacity="0" xlink:href="#t"/></g><g><use fill="#fff" xlink:href="#u"/><use fill-opacity="0" stroke="#000" stroke-opacity="0" xlink:href="#u"/></g></svg>