<svg xmlns="http://www.w3.org/2000/svg" viewBox="0 0 600 306"><ellipse cx="218" cy="208" fill="#D3D3D3" rx="47" ry="12"/><ellipse cx="412" cy="208" fill="#D3D3D3" rx="47" ry="12"/><circle cx="219" cy="133" r="75" fill="orange"/><circle cx="413" cy="133" r="75" fill="gold"/><circle cx="210" cy="113" r="31" fill="#fff"/><circle cx="247" cy="113" r="31" fill="#fff"/><circle cx="381" cy="113" r="31" fill="#fff"/><circle cx="425" cy="113" r="31" fill="#fff"/><circle cx="219" cy="113" r="6"/><circle cx="256" cy="113" r="6"/><circle cx="377" cy="113" r="6"/><circle cx="420" cy="113" r="6"/><circle cx="234" cy="144" r="9"/><ellipse cx="405" cy="169" fill="#DC143C" class="mouth__gold" rx="6" ry="13"/><ellipse cx="223" cy="169" fill="#DC143C" class="mouth__orage" rx="13" ry="6"/><ellipse cx="147" cy="107" fill="orange" rx="50" ry="19" transform="rotate(15)"/><path fill="orange" d="M163 85l2-25 26 4z"/><path d="M168 81l1-17 18 3z"/><path fill="orange" d="M233 62l23-14 7 24z"/><path d="M240 61l14-8 6 17z"/><path fill="#fff" d="M83 146l-14-18 23-6z"/></svg>