<?xml version="1.0" encoding="UTF-8" standalone="no"?>
<!DOCTYPE svg PUBLIC "-//W3C//DTD SVG 1.1//EN" "http://www.w3.org/Graphics/SVG/1.1/DTD/svg11.dtd">
<svg version="1.1" xmlns="http://www.w3.org/2000/svg" xmlns:xlink="http://www.w3.org/1999/xlink" preserveAspectRatio="xMidYMid meet" viewBox="0 0 1200 800" width="1200" height="800"><defs><path d="M265 208C265 214.63 243.96 220 218 220C192.04 220 171 214.63 171 208C171 201.37 192.04 196 218 196C243.96 196 265 201.37 265 208Z" id="dgW34bTNU"></path><path d="M459 208C459 214.63 437.96 220 412 220C386.04 220 365 214.63 365 208C365 201.37 386.04 196 412 196C437.96 196 459 201.37 459 208Z" id="bq03glZmE"></path><path d="M219 58C177.58 58 144 91.58 144 133C144 174.42 177.58 208 219 208C260.42 208 294 174.42 294 133C294 91.58 260.42 58 219 58Z" id="d1nbaJi7Hs"></path><path d="M413 58C371.58 58 338 91.58 338 133C338 174.42 371.58 208 413 208C454.42 208 488 174.42 488 133C488 91.58 454.42 58 413 58Z" id="fJqj8zqQ"></path><path d="M210 82C192.88 82 179 95.88 179 113C179 130.12 192.88 144 210 144C227.12 144 241 130.12 241 113C241 95.88 227.12 82 210 82Z" id="cc42fb0xi"></path><path d="M247 82C229.88 82 216 95.88 216 113C216 130.12 229.88 144 247 144C264.12 144 278 130.12 278 113C278 95.88 264.12 82 247 82Z" id="a1axFVsl0d"></path><path d="M381 82C363.88 82 350 95.88 350 113C350 130.12 363.88 144 381 144C398.12 144 412 130.12 412 113C412 95.88 398.12 82 381 82Z" id="f15AM4WR3l"></path><path d="M425 82C407.88 82 394 95.88 394 113C394 130.12 407.88 144 425 144C442.12 144 456 130.12 456 113C456 95.88 442.12 82 425 82Z" id="aAyAh7f5O"></path><path d="M219 107C215.69 107 213 109.69 213 113C213 116.31 215.69 119 219 119C222.31 119 225 116.31 225 113C225 109.69 222.31 107 219 107Z" id="b1ppnl2ntY"></path><path d="M256 107C252.69 107 250 109.69 250 113C250 116.31 252.69 119 256 119C259.31 119 262 116.31 262 113C262 109.69 259.31 107 256 107Z" id="dGf7Pade4"></path><path d="M377 107C373.69 107 371 109.69 371 113C371 116.31 373.69 119 377 119C380.31 119 383 116.31 383 113C383 109.69 380.31 107 377 107Z" id="f2VIRUXhhP"></path><path d="M420 107C416.69 107 414 109.69 414 113C414 116.31 416.69 119 420 119C423.31 119 426 116.31 426 113C426 109.69 423.31 107 420 107Z" id="c7WzIKSFGW"></path><path d="M234 135C229.03 135 225 139.03 225 144C225 148.97 229.03 153 234 153C238.97 153 243 148.97 243 144C243 139.03 238.97 135 234 135Z" id="a1lTUBMlgc"></path><path d="M411 169C411 176.18 408.31 182 405 182C401.69 182 399 176.18 399 169C399 161.82 401.69 156 405 156C408.31 156 411 161.82 411 169Z" id="biZAQj9zZ"></path><path d="M236 169C236 172.31 230.18 175 223 175C215.82 175 210 172.31 210 169C210 165.69 215.82 163 223 163C230.18 163 236 165.69 236 169Z" id="c39mmmJen"></path><path d="M162.59 154.34C159.88 164.48 136.05 166.9 109.38 159.75C82.71 152.61 63.29 138.6 66 128.46C68.72 118.32 92.54 115.9 119.22 123.05C145.89 130.19 165.31 144.21 162.59 154.34Z" id="brpfXswP"></path><path d="M165 60L191 64L163 85L165 60Z" id="asqKKxSa9"></path><path d="M169 64L187 67L168 81L169 64Z" id="aMiLkkMDK"></path><path d="M256 48L263 72L233 62L256 48Z" id="g1LWe1Jw1v"></path><path d="M254 53L260 70L240 61L254 53Z" id="epe1stT7b"></path><path d="M69 128L92 122L83 146L69 128Z" id="bIsLE9dBF"></path></defs><g><g><g><use xlink:href="#dgW34bTNU" opacity="1" fill="#d3d3d3" fill-opacity="1"></use><g><use xlink:href="#dgW34bTNU" opacity="1" fill-opacity="0" stroke="#000000" stroke-width="1" stroke-opacity="0"></use></g></g><g><use xlink:href="#bq03glZmE" opacity="1" fill="#d3d3d3" fill-opacity="1"></use><g><use xlink:href="#bq03glZmE" opacity="1" fill-opacity="0" stroke="#000000" stroke-width="1" stroke-opacity="0"></use></g></g><g><use xlink:href="#d1nbaJi7Hs" opacity="1" fill="#ffa500" fill-opacity="1"></use><g><use xlink:href="#d1nbaJi7Hs" opacity="1" fill-opacity="0" stroke="#000000" stroke-width="1" stroke-opacity="0"></use></g></g><g><use xlink:href="#fJqj8zqQ" opacity="1" fill="#ffd700" fill-opacity="1"></use><g><use xlink:href="#fJqj8zqQ" opacity="1" fill-opacity="0" stroke="#000000" stroke-width="1" stroke-opacity="0"></use></g></g><g><use xlink:href="#cc42fb0xi" opacity="1" fill="#ffffff" fill-opacity="1"></use><g><use xlink:href="#cc42fb0xi" opacity="1" fill-opacity="0" stroke="#000000" stroke-width="1" stroke-opacity="0"></use></g></g><g><use xlink:href="#a1axFVsl0d" opacity="1" fill="#ffffff" fill-opacity="1"></use><g><use xlink:href="#a1axFVsl0d" opacity="1" fill-opacity="0" stroke="#000000" stroke-width="1" stroke-opacity="0"></use></g></g><g><use xlink:href="#f15AM4WR3l" opacity="1" fill="#ffffff" fill-opacity="1"></use><g><use xlink:href="#f15AM4WR3l" opacity="1" fill-opacity="0" stroke="#000000" stroke-width="1" stroke-opacity="0"></use></g></g><g><use xlink:href="#aAyAh7f5O" opacity="1" fill="#ffffff" fill-opacity="1"></use><g><use xlink:href="#aAyAh7f5O" opacity="1" fill-opacity="0" stroke="#000000" stroke-width="1" stroke-opacity="0"></use></g></g><g><use xlink:href="#b1ppnl2ntY" opacity="1" fill="#000000" fill-opacity="1"></use><g><use xlink:href="#b1ppnl2ntY" opacity="1" fill-opacity="0" stroke="#000000" stroke-width="1" stroke-opacity="0"></use></g></g><g><use xlink:href="#dGf7Pade4" opacity="1" fill="#000000" fill-opacity="1"></use><g><use xlink:href="#dGf7Pade4" opacity="1" fill-opacity="0" stroke="#000000" stroke-width="1" stroke-opacity="0"></use></g></g><g><use xlink:href="#f2VIRUXhhP" opacity="1" fill="#000000" fill-opacity="1"></use><g><use xlink:href="#f2VIRUXhhP" opacity="1" fill-opacity="0" stroke="#000000" stroke-width="1" stroke-opacity="0"></use></g></g><g><use xlink:href="#c7WzIKSFGW" opacity="1" fill="#000000" fill-opacity="1"></use><g><use xlink:href="#c7WzIKSFGW" opacity="1" fill-opacity="0" stroke="#000000" stroke-width="1" stroke-opacity="0"></use></g></g><g><use xlink:href="#a1lTUBMlgc" opacity="1" fill="#000000" fill-opacity="1"></use><g><use xlink:href="#a1lTUBMlgc" opacity="1" fill-opacity="0" stroke="#000000" stroke-width="1" stroke-opacity="0"></use></g></g><g><use xlink:href="#biZAQj9zZ" opacity="1" fill="#dc143c" fill-opacity="1"></use><g><use xlink:href="#biZAQj9zZ" opacity="1" fill-opacity="0" stroke="#000000" stroke-width="1" stroke-opacity="0"></use></g></g><g><use xlink:href="#c39mmmJen" opacity="1" fill="#dc143c" fill-opacity="1"></use><g><use xlink:href="#c39mmmJen" opacity="1" fill-opacity="0" stroke="#000000" stroke-width="1" stroke-opacity="0"></use></g></g><g><use xlink:href="#brpfXswP" opacity="1" fill="#ffa500" fill-opacity="1"></use><g><use xlink:href="#brpfXswP" opacity="1" fill-opacity="0" stroke="#000000" stroke-width="1" stroke-opacity="0"></use></g></g><g><use xlink:href="#asqKKxSa9" opacity="1" fill="#ffa500" fill-opacity="1"></use><g><use xlink:href="#asqKKxSa9" opacity="1" fill-opacity="0" stroke="#000000" stroke-width="1" stroke-opacity="0"></use></g></g><g><use xlink:href="#aMiLkkMDK" opacity="1" fill="#000000" fill-opacity="1"></use><g><use xlink:href="#aMiLkkMDK" opacity="1" fill-opacity="0" stroke="#000000" stroke-width="1" stroke-opacity="0"></use></g></g><g><use xlink:href="#g1LWe1Jw1v" opacity="1" fill="#ffa500" fill-opacity="1"></use><g><use xlink:href="#g1LWe1Jw1v" opacity="1" fill-opacity="0" stroke="#000000" stroke-width="1" stroke-opacity="0"></use></g></g><g><use xlink:href="#epe1stT7b" opacity="1" fill="#000000" fill-opacity="1"></use><g><use xlink:href="#epe1stT7b" opacity="1" fill-opacity="0" stroke="#000000" stroke-width="1" stroke-opacity="0"></use></g></g><g><use xlink:href="#bIsLE9dBF" opacity="1" fill="#ffffff" fill-opacity="1"></use><g><use xlink:href="#bIsLE9dBF" opacity="1" fill-opacity="0" stroke="#000000" stroke-width="1" stroke-opacity="0"></use></g></g></g></g></svg>